<?xml version="1.0" encoding="utf-8"?>
<!-- Generator: Adobe Illustrator 24.1.1, SVG Export Plug-In . SVG Version: 6.00 Build 0)  -->
<svg version="1.1" id="svg" xmlns="http://www.w3.org/2000/svg" xmlns:xlink="http://www.w3.org/1999/xlink" x="0px" y="0px"
	 viewBox="0 0 400 119.9" style="enable-background:new 0 0 400 119.9;" xml:space="preserve">
<style type="text/css">
	.st0{fill-rule:evenodd;clip-rule:evenodd;fill:#4C4C4C;}
	.st1{fill-rule:evenodd;clip-rule:evenodd;fill:#048C44;}
	.st2{fill-rule:evenodd;clip-rule:evenodd;fill:#289A5F;}
	.st3{fill-rule:evenodd;clip-rule:evenodd;fill:#52AE7E;}
	.st4{fill-rule:evenodd;clip-rule:evenodd;fill:#206C6C;}
</style>
<g id="svgg">
	<path id="path0" class="st0" d="M-42.1,10.7l-0.5,0.5l-0.1,39.6c0,21.8,0,39.8,0.1,40.1c0.4,1.2,0.4,1.2,18.8,1.2h17.4l0.5-0.6
		c0.6-0.7,0.7-2,0.6-8.8c-0.1-4.7,0.9-4.4-12.3-4.4c-9.9,0-10.7,0-10.9-0.5c-0.3-0.7-0.2-21,0.1-21.4c0.2-0.2,2.6-0.3,8.8-0.3l8.6,0
		l0.6-0.6l0.6-0.6l0-5.2c0-5.3-0.1-6.6-0.8-7c-0.2-0.1-4.3-0.2-9-0.2c-6.3,0-8.7-0.1-8.9-0.3c-0.3-0.4-0.4-16.9-0.1-17.7
		c0.2-0.4,0.8-0.5,9.5-0.5c5.7,0,9.6-0.1,10.1-0.3C-8,23.5-7,22.2-7,21.4c0-0.2,0.2-1.2,0.5-2.3c0.3-1,0.5-2.1,0.6-2.5
		c0.1-0.3,0.3-1.2,0.5-1.9c0.4-1.3,0.5-3.9,0.2-4.2C-5.7,10-41.6,10.2-42.1,10.7 M88.4,31c-2.5,0.5-6.8,1.6-7.7,2
		c-0.5,0.2-1,0.4-1.1,0.5c-0.7,0.2-2.1,1.3-2.6,2c-0.7,1-0.7,1.1,0.6,5.8c0.5,2,1,3.7,1,3.8c0,1.9,1.8,2.2,4.9,0.7
		c1.8-0.8,4.4-1.8,6-2.1c6.9-1.3,9.4,0.8,9.5,8c0.1,3.4,0.1,3.3-2.8,3.3c-4.8-0.1-10.6,1.1-14.4,3.2c-4.2,2.3-7.8,7.7-8.4,12.9
		c-1.9,15.1,6,24.9,18.4,22.7c2.6-0.4,6-2.6,8.4-5.2c0.8-0.9,0.8-0.9,1.6,1.7c1.1,3.7,1.9,4.2,4.5,3c8.9-4.1,8.6-3.9,7.1-8.1
		c-1.6-4.4-1.7-6.6-1.8-24.3c0-10.5-0.1-14.9-0.3-16.4c-1-6.8-4.5-11.4-9.8-12.9c-0.9-0.2-1.9-0.5-2.2-0.7
		C98.5,30.7,89.9,30.7,88.4,31 M129.9,31.6c-1.2,0.5-3.2,1.2-4.3,1.6c-3.2,1.2-3.4,1.6-2.4,5.7c0.3,1.2,0.6,2.8,0.7,3.6
		c0.1,0.7,0.2,1.5,0.3,1.6c0.1,0.1,0.2,10.8,0.3,23.8c0.1,22.7,0.1,23.5,0.5,23.9c0.8,0.7,11.8,0.5,12.4-0.2c0.4-0.5,0.4-1,0.4-21.7
		V48.7l0.6-0.7c0.9-1,2.4-2.2,2.6-2c0.1,0.1,0.1,0,0.1-0.1c0-0.2,0.5-0.6,1.1-0.7c0.1,0,0.5-0.2,0.9-0.5c2.4-1.3,4.6-0.8,5.6,1.3
		c1.1,2.3,1.2,3.4,1.2,25.1c0,19.9,0,20.1,0.5,20.5c0.6,0.6,11.7,0.7,12.4,0.1c0.4-0.4,0.4-1.2,0.5-21.8l0.1-21.5l1.2-1.1
		c4.1-3.8,8.2-4.3,9.6-1.2c0.9,2.1,1,2.7,1,24.3c0.1,18.4,0.1,20.8,0.4,21.2c0.4,0.6,11.8,0.7,12.4,0.1c0.3-0.3,0.6-45,0.3-47.9
		c-0.6-5.5-2.9-10.2-5.8-11.8c-4.4-2.6-11.8-1.5-16.6,2.3c-0.8,0.6-1.5,1.2-1.6,1.2c-0.1,0-0.2,0.1-0.2,0.2
		c-0.1,0.3-2.4,2.6-2.5,2.4c0-0.1-0.3-0.7-0.7-1.3c-1.9-4-5.3-6-10.1-6.1c-4.7,0-7.8,1.3-12.2,5.2l-2.4,2.1l-0.3-1.2
		c-0.1-0.7-0.3-1.3-0.3-1.3c0-0.4-0.9-2.9-1.4-3.7C133.9,30.4,133.1,30.3,129.9,31.6 M31.2,52.9c-0.3,0.1-3,5-7.8,13.9
		c-0.8,1.5-1.8,3.3-2.2,4c-0.4,0.7-1.4,2.5-2.2,4c-0.8,1.5-2.8,5.1-4.3,7.8c-1.5,2.8-3.3,6.1-4,7.4l-1.3,2.4l7.5,0.1
		c6.9,0.1,7.5,0,7.9-0.4c0.2-0.3,1.5-2.7,2.9-5.5c1.4-2.8,3.8-7.5,5.3-10.5c1.5-3,3.4-6.7,4.2-8.2c0.8-1.5,1.5-2.8,1.6-2.9
		c0.1,0,0.2-0.3,0.2-0.5c0-0.8,0.7-0.3,1.6,1.2c0.5,0.9,0.9,1.7,0.9,1.8c0,0.1,0.1,0.3,0.2,0.3c0.1,0,1.3,2.2,2.7,4.9
		c1.4,2.6,2.9,5.6,3.5,6.6c0.5,1,1,1.9,1,2s0.1,0.3,0.2,0.3c0.1,0,1.2,2.1,2.4,4.5c3.5,6.9,3,6.6,12.2,6.4l6.4-0.1l-1.5-2.9
		c-0.8-1.6-2.3-4.4-3.3-6.2c-1-1.9-1.8-3.5-1.8-3.7c0-0.2-0.1-0.4-0.2-0.4c-0.1,0-1-1.7-2.1-3.7c-1-2-2.6-4.9-3.4-6.5
		c-0.9-1.6-2.7-5.1-4.1-7.7c-1.4-2.6-3-5.6-3.5-6.6l-1-1.9l-8.7,0C35.4,52.8,31.4,52.9,31.2,52.9 M98.8,65.7
		c0.3,0.3,0.4,11.1,0.1,12c-0.8,2.5-5.4,4.9-7.9,4.2c-3.3-0.9-4.9-3.2-4.9-7.2c-0.1-4.3,1.6-7,5.2-8.2
		C93.7,65.7,98.2,65.2,98.8,65.7"/>
	<path id="path1" class="st1" d="M140.8-38.7c-4.8,0.3-9.2,0.8-11.1,1.2c-0.2,0-0.9,0.2-1.6,0.3c-0.7,0.1-1.3,0.2-1.3,0.2
		c-0.1,0-0.6,0.1-1.1,0.2c-8.4,1.7-17.9,5.2-26.6,9.8c-1.1,0.6-2.1,1.1-2.2,1.1c-0.3,0.1-6.4,3.8-8,4.9c-0.6,0.4-1.5,1-1.9,1.3
		c-1.7,1.1-7.1,5.2-9.2,6.9c-2.2,1.8-5.5,4.7-5.7,4.9c-0.1,0.1-1.2,1.2-2.5,2.4C58,5.6,48.6,18.4,41.4,33c-1.5,3.1-2.1,3.1-4.6,0.3
		c-3.3-3.8-8.6-8.1-13.1-10.8c-3.9-2.2-4.1-2.3-7.1-3.6c-1.5-0.6-2.9-1.2-3.2-1.4c-0.3-0.2-0.7-0.3-0.9-0.3c-0.2,0-1.2-0.3-2.3-0.6
		C9,16.3,7.9,16,7.6,15.9c-0.3-0.1-1-0.2-1.4-0.4c-2.9-0.8-5.2-0.4-2.8,0.5c1.6,0.6,8.6,5.7,11.7,8.5c7.4,6.6,13.1,15.1,15.6,23.3
		c0.7,2.1,0.5,2,9.4,2c9,0,8.9,0,9.6-3.5c0.1-0.6,0.7-2.5,1-3.1c0.1-0.3,0.6-1.5,1.1-2.7c1.2-3.1,3.2-7.5,3.5-7.8
		c0.1-0.1,0.2-0.2,0.1-0.2c-0.2,0,1.3-3,4-7.8c0.5-0.9,1.1-1.9,1.3-2.4c3.3-6.6,13.7-20.1,20.2-26.3c0.8-0.7,1.7-1.6,2.1-2
		c7.6-7.5,19.9-16.3,29.4-21.1c3-1.5,8.2-3.8,9.4-4.1c0.2-0.1,0.9-0.3,1.7-0.6c3.9-1.5,7-2.5,11.5-3.8c4-1.1,11.1-2.6,12.9-2.7
		c0.6,0,1.4-0.1,1.7-0.2l0.7-0.2l-0.8,0C146.4-38.8,143-38.8,140.8-38.7 M208.3,10.5c-0.3,0.1-0.5,0.4-0.6,0.7
		c-0.4,1.2-0.1,79.7,0.3,80.2c0.4,0.5,22.3,0.8,25,0.3c12.6-2,18.1-8.9,18-22.8c0-10.1-3.1-15.8-10.5-19.4l-0.9-0.4l1.6-1.1
		c5.4-3.8,7.5-8.6,7.5-16.8c0-12-4.7-18.1-15.8-20.5C231.7,10.3,208.8,10.2,208.3,10.5 M311.2,10.8c-0.6,0.8-0.8,79.6-0.1,80.5
		c0.6,0.9,12.6,0.9,13.3,0c0.4-0.5,0.4-1.7,0.4-15.8c0-11.9,0.1-15.3,0.3-15.5c0.2-0.2,1.8-0.3,4-0.3c2,0,4.1-0.2,4.7-0.3
		c0.6-0.1,1.3-0.3,1.6-0.3c1.1-0.2,4.2-1.4,5.1-2c0.5-0.3,0.9-0.5,0.9-0.4c0,0.1,0.1,0.1,0.2-0.1c0.1-0.2,0.5-0.5,0.9-0.8
		c9.6-5.8,13.4-25.5,7.1-37.2c-2.1-3.9-6.8-6.9-12.5-8C333.4,9.9,311.8,10.1,311.2,10.8 M228.6,23.9c4.7,1.2,6.9,5.7,5.9,11.9
		c-0.5,2.8-2.4,6.4-3.1,5.9c-0.1-0.1-0.2,0-0.2,0.1c0,1.1-8.5,2.6-9.5,1.6c-0.4-0.3-0.4-19,0-19.6C222,23.4,226.5,23.4,228.6,23.9
		 M333.9,24.1c1.1,0.5,2.4,1.5,2.4,1.8c0,0.1,0.2,0.5,0.5,0.9c0.5,0.6,0.8,1.6,1.2,3.5c0.5,2.3,0.3,6.3-0.5,9.8
		c-0.9,4.3-4.4,6.4-10.5,6.3l-2.2,0l-0.1-10.8c0-5.9,0-11.1,0.1-11.4l0.1-0.6l3.9,0.1C331.8,23.7,333.1,23.8,333.9,24.1 M369.8,31
		c-0.5,0.1-1.4,0.3-2,0.4c-0.6,0.1-1.2,0.2-1.2,0.3c-0.1,0.1-0.5,0.2-0.9,0.2c-4.3,0.9-8.2,3.1-8.2,4.8c0,0.7,2.3,8.9,2.8,9.6
		c0.4,0.7,0.5,0.7,1.3,0.6c1.4-0.2,1.5-0.3,2-0.6c2.1-1.4,6.9-2.6,10.1-2.6c4.9,0,6.2,1.6,6.4,7.7c0.2,4,0.3,3.8-3.9,3.8
		c-1.7,0-3.2,0-3.3,0.1c-0.1,0.1-0.8,0.2-1.5,0.3c-8.9,1.1-14.8,6.5-17,15.5c-0.3,1.2-0.3,7.2,0.1,8.9c1.3,6.7,5.3,12.1,10,13.5
		c6.5,1.8,12.2,0.2,16.6-4.6l1-1.2l0.5,1.7c1.2,4.1,2.1,5.2,3.9,4.4c3.4-1.6,7.3-3.5,8.1-4c0.9-0.6,1-1.7,0.2-3.7
		c-0.3-0.7-0.5-1.4-0.4-1.6c0.1-0.1,0-0.3-0.1-0.3c-0.2,0-0.8-2.7-1.1-4.5c-0.2-1.2-0.3-8.2-0.4-21.3c-0.1-10.6-0.1-12.9-0.5-14.5
		c-0.2-1-0.4-2.1-0.4-2.3c0-0.3-0.1-0.5-0.2-0.5c-0.1,0-0.2-0.2-0.2-0.3c0-0.2-0.2-0.8-0.4-1.3c-0.2-0.5-0.4-1-0.4-1
		c0.4,0-2.8-3.8-3.9-4.7c-0.9-0.7-3.9-2.1-5-2.4C379,30.7,372.2,30.5,369.8,31 M418.2,30.8c-11.1,1.8-17.8,14.4-13.9,26.2
		c1.8,5.4,4.5,7.7,14.4,12.1c2.2,1,4.7,2.4,4.7,2.8c0,0.1,0.1,0.3,0.3,0.3c0.7,0,1.6,2.1,1.5,3.9c-0.1,6.3-7,7-16.7,1.6
		c-3.6-2-3.7-2-4.9,2.2c-0.4,1.3-1,3-1.3,3.9c-0.8,2.3-0.8,3.1,0.3,4.2c1.3,1.3,4.6,3.2,7.2,4.1c10,3.4,17,2.6,22.3-2.4
		c4.3-4,6.8-12.5,5.6-18.7c-1.6-7.8-5.4-11.8-15.6-16.1c-5.3-2.2-6.6-3.5-6.6-6.3c0-4.1,4.5-6.3,9.9-4.8c0.3,0.1,0.8,0.2,1.3,0.3
		c0.5,0.1,1.8,0.6,3.1,1.1c3.3,1.4,3.6,1.4,4.4-0.4c1-2.3,2.7-7.5,2.7-8.1C437,33.5,424.8,29.7,418.2,30.8 M460.1,30.9
		c-3.1,0.6-6.2,2-8.2,3.9c-3.6,3.2-5.6,7.2-6.4,12.8c-1.1,8.3,2.7,15.9,9.7,19c0.7,0.3,1.4,0.7,1.5,0.8c0.2,0.2,0.3,0.2,0.3,0.1
		c0-0.2,6.4,2.8,7.5,3.4c1.9,1.2,2.9,3,2.9,5c-0.2,6.4-6.5,7-16.5,1.7c-4.1-2.2-3.7-2.4-5.4,3c-2.2,6.6-2.2,6.5,1.9,9.1
		c1.5,0.9,5.4,2.6,7.1,3c0.2,0.1,0.6,0.2,0.8,0.2c2.4,0.9,8.1,1.3,11.1,0.8c9-1.5,15.6-12.4,13.7-22.5c-0.1-0.6-0.2-1.3-0.3-1.5
		c-1.1-6.6-5.7-10.8-16.6-15.4c-2.7-1.1-5.2-3.1-5.1-3.9c0-0.1-0.1-0.5-0.2-1c-0.5-1.3,0.1-3.3,1.3-4.5c2.2-2.2,8.6-1.9,14,0.6
		c2.8,1.3,2.7,1.4,4.8-4.7c1.7-5.1,1.7-5.2-1.7-7.2c-0.8-0.5-1.5-0.8-1.5-0.8c0,0.1-0.4-0.1-0.9-0.3c-0.5-0.2-1.2-0.5-1.5-0.5
		c-0.3-0.1-1-0.3-1.4-0.4c-1.3-0.4-1.6-0.5-3.8-0.8C465,30.7,461.3,30.6,460.1,30.9 M267.9,31.6c-0.1,0.1-0.9,0.2-1.8,0.3
		c-2.2,0.2-3.4,0.4-4.8,0.5c-0.6,0.1-1.6,0.2-2.2,0.3c-3.2,0.4-3.2,0.6-1.6,6.5c0.7,2.4,1.3,4.5,1.3,4.7c0.1,0.2,0.8,2.8,1.6,5.8
		c0.8,3,1.5,5.4,1.4,5.4c-0.1,0,0,0.1,0.1,0.3c0.1,0.2,0.4,1.2,0.7,2.2c0.3,1,0.8,2.8,1.2,4c0.4,1.2,0.7,2.4,0.7,2.7
		c0,0.3,0.3,1.1,0.5,1.9c0.3,0.8,0.5,1.7,0.6,2c0.1,0.5,1.6,5.7,3.5,12.2c0.4,1.3,0.8,2.8,0.9,3.2c0.4,1.7,2,6.8,2.3,7.5
		c0.4,0.7,0.4,0.7,3.4,0.6c2.2,0,2.1-0.3,1,3.7c-2,7.1-4.2,8.9-9.2,7.9c-1.9-0.4-2.5-0.6-5-2c-2-1.1-2.4-0.9-3.4,1.8
		c-0.3,0.7-1,2.7-1.7,4.3c-1.4,3.4-1.4,4-0.5,5.1c0.9,1.2,5.2,3.3,7.3,3.7c0.5,0.1,1.3,0.3,1.8,0.4c1.8,0.5,6.9,0.3,8.9-0.3
		c5.1-1.5,8.1-4.9,10.7-12.4c0.4-1.2,2.7-9.9,2.8-10.9c0-0.3,0.3-1.4,0.6-2.4c0.3-1,0.5-2.1,0.6-2.4c0-0.3,0.3-1.5,0.6-2.8
		c0.3-1.3,0.6-2.5,0.7-2.8c0.1-0.3,0.3-1.4,0.6-2.4c0.3-1,0.5-2.1,0.6-2.4c0-0.3,1.1-4.6,2.2-9.7c1.2-5.1,2.2-9.3,2.2-9.5
		c0.2-1,0.5-2.4,1.5-6.5c1.1-4.7,1.4-6.3,1.3-6.3c0,0,0.1-0.4,0.2-0.8c0.1-0.4,0.3-1.1,0.4-1.5c0.1-0.4,0.2-0.8,0.2-1.1
		c0.1-0.2,0.2-0.6,0.2-0.9c0-0.3,0.4-1.7,0.7-3.2c1.3-5.3,1.3-5.3-2.1-5.9c-9.1-1.6-9.9-1.5-10.5,2.1c-0.3,1.5-0.3,1.5-0.5,3.1
		c-0.1,0.8-0.3,1.7-0.4,2.1c-0.1,0.4-0.3,1.4-0.4,2.4c-0.4,1.9-0.5,2.8-0.7,3.6c0,0.3-0.2,1.2-0.3,1.9c-0.1,0.8-0.2,1.5-0.2,1.5
		c0,0.1-0.1,0.5-0.2,1c-0.1,0.5-0.3,1.2-0.3,1.7c-0.1,0.4-0.2,1.3-0.4,2c-0.1,0.7-0.3,1.5-0.3,1.9c-0.1,0.4-0.2,0.9-0.2,1.1
		c-0.1,0.3-0.2,0.8-0.2,1.2c-0.1,0.4-0.3,1.8-0.6,3.1c-0.2,1.3-0.5,2.7-0.6,3.1c-0.1,0.4-0.2,0.8-0.2,1c-0.1,0.2-0.2,0.8-0.2,1.3
		c-0.1,0.5-0.3,1.9-0.5,3.1c-0.2,1.2-0.7,3.9-1,6.2c-0.6,3.8-0.8,4.4-0.9,3.3c-0.2-1.3-2.4-12.4-3.8-18.7c-0.4-2-0.8-3.8-0.9-4
		c-0.1-0.6-0.6-2.6-1.8-8.1c-1.3-5.6-2.5-10.7-2.6-11.5c-0.8-4.2-1.3-5.3-2.5-5.6C268.3,31.5,268,31.5,267.9,31.6 M227.6,57.1
		c6.3,0.3,9,3.3,9.3,9.8c0.2,6.3-2.2,10.4-6.6,11.2c-0.5,0.1-1.6,0.3-2.4,0.4c-2.1,0.4-5.9,0.3-6.2-0.1c-0.1-0.2-0.2-4-0.3-10.8
		c0-12-0.2-11,2.3-10.8C224.6,56.9,226.3,57.1,227.6,57.1 M379.9,66.3c0.6,1.4,0.4,11.3-0.3,12.2c-2.3,3.3-7,4.5-9.8,2.6
		c-3.9-2.7-3.7-10.5,0.3-13.4C373.1,65.7,379.2,64.8,379.9,66.3"/>
	<path id="path2" class="st2" d="M145.1-38.8c0.5,0.1,1.4,0.1,1.9,0c0.5-0.1,0.1-0.1-0.9-0.1C145.1-38.9,144.6-38.9,145.1-38.8
		 M61.7,2.4l-0.8,1L61.7,2.4c0.5-0.4,0.9-0.9,0.9-0.9C62.6,1.3,62.4,1.5,61.7,2.4 M73,4.3l-2.1,2.6L73,4.3c1.3-1.3,2.2-2.5,2.2-2.5
		C75.3,1.6,75,1.9,73,4.3 M58,6.8l-0.9,1.1L58,6.8c0.9-0.9,1.1-1.1,0.9-1.1C58.9,5.7,58.5,6.2,58,6.8 M207.5,51.2
		c0,21.6,0,30.4,0.1,19.6c0-10.8,0-28.4,0-39.2C207.5,20.8,207.5,29.6,207.5,51.2 M221.5,33.6c0,4.6,0,6.5,0.1,4.2
		c0-2.3,0-6.1,0-8.4C221.5,27.1,221.5,29,221.5,33.6 M328.7,46.3c0.3,0.1,0.7,0.1,0.9,0c0.2-0.1,0-0.1-0.5-0.1
		C328.6,46.2,328.4,46.2,328.7,46.3 M376.5,55.1c0.6,0.1,1.5,0.1,2.1,0c0.6-0.1,0.1-0.1-1.1-0.1C376.3,55,375.9,55,376.5,55.1
		 M221.5,67.2c0,5.6,0,7.9,0.1,5.1c0-2.7,0-7.3,0-10.1C221.5,59.5,221.5,61.7,221.5,67.2 M449.2,62.2c0.4,0.5,0.8,0.9,0.9,0.9
		c0.1,0-0.2-0.4-0.6-0.9c-0.4-0.5-0.8-0.9-0.9-0.9C448.5,61.3,448.8,61.7,449.2,62.2 M324.8,76.2c0,7.4,0,10.4,0.1,6.7
		c0-3.7,0-9.7,0-13.4C324.9,65.7,324.8,68.8,324.8,76.2 M223.1,78.7c0.8,0.1,2,0.1,2.7,0c0.7-0.1,0.1-0.1-1.4-0.1
		C222.9,78.6,222.3,78.7,223.1,78.7 M419.3,81.4c0.3,0.1,0.7,0.1,0.9,0c0.2-0.1,0-0.1-0.5-0.1C419.2,81.3,419.1,81.3,419.3,81.4
		 M461.4,81.4c0.3,0.1,0.7,0.1,0.9,0c0.2-0.1,0-0.1-0.5-0.1C461.3,81.3,461.2,81.3,461.4,81.4 M214.2,92c3,0,7.8,0,10.7,0
		c2.9,0,0.5-0.1-5.4-0.1C213.6,92,211.2,92,214.2,92 M275,92c0.5,0.1,1.4,0.1,1.9,0c0.5-0.1,0.1-0.1-0.9-0.1
		C274.9,91.9,274.5,92,275,92 M314.8,92c1.6,0,4.1,0,5.7,0c1.6,0,0.3-0.1-2.8-0.1C314.5,92,313.2,92,314.8,92 M269.4,117
		c0.5,0.1,1.3,0.1,1.8,0c0.5-0.1,0-0.1-1-0.1C269.3,116.9,268.9,117,269.4,117"/>
	<path id="path3" class="st3" d="M141.7-38.8c0.3,0.1,0.8,0.1,1.1,0c0.3-0.1,0-0.1-0.6-0.1C141.6-38.9,141.4-38.9,141.7-38.8
		 M223.4,23.7c0.6,0.1,1.5,0.1,2,0c0.5-0.1,0-0.1-1.1-0.1C223.3,23.6,222.9,23.6,223.4,23.7 M326.5,23.7c0.8,0.1,2,0.1,2.8,0
		c0.8-0.1,0.1-0.1-1.4-0.1S325.7,23.6,326.5,23.7 M324.8,34.9c0,6.1,0,8.6,0.1,5.5c0-3,0-8,0-11C324.9,26.4,324.8,28.9,324.8,34.9
		 M95.1,30.6c0.2,0.1,0.6,0.1,0.8,0s0-0.1-0.4-0.1C95.1,30.5,94.9,30.5,95.1,30.6 M150.4,30.6c0.3,0.1,0.9,0.1,1.2,0
		c0.3-0.1,0.1-0.1-0.6-0.1C150.3,30.5,150,30.5,150.4,30.6 M175.9,30.6c0.4,0.1,1.1,0.1,1.4,0c0.4-0.1,0.1-0.1-0.7-0.1
		S175.5,30.5,175.9,30.6 M374,30.6c0.6,0.1,1.5,0.1,2.1,0c0.6-0.1,0.1-0.1-1.1-0.1S373.4,30.6,374,30.6 M388.9,35.6
		c0.4,0.5,0.8,0.9,0.9,0.9c0.1,0-0.2-0.4-0.6-0.9s-0.8-0.9-0.9-0.9C388.2,34.7,388.5,35.1,388.9,35.6 M-28.7,40.8
		c0,0.5,0,0.7,0.1,0.5c0.1-0.3,0.1-0.7,0-0.9C-28.7,40.1-28.7,40.3-28.7,40.8 M325.7,46.3c0.3,0.1,0.8,0.1,1.1,0
		c0.3-0.1,0-0.1-0.6-0.1C325.6,46.2,325.3,46.2,325.7,46.3 M124.3,49.4c0,0.6,0,0.8,0.1,0.5c0.1-0.3,0.1-0.8,0-1.1
		C124.4,48.6,124.3,48.8,124.3,49.4 M380,51c0,0.7,0,1,0.1,0.6c0.1-0.4,0.1-1,0-1.3S380,50.3,380,51 M98.9,51.6c0,0.6,0,0.8,0.1,0.5
		c0.1-0.3,0.1-0.8,0-1.1C99,50.7,98.9,51,98.9,51.6 M175.4,71.6c0,10.3,0,14.5,0.1,9.4c0-5.2,0-13.6,0-18.7
		C175.4,57.1,175.4,61.3,175.4,71.6 M150,72.7c0,10,0,14.1,0.1,9.1c0-5,0-13.2,0-18.2C150,58.6,150,62.7,150,72.7 M-28.7,57.9
		c0,0.6,0,0.8,0.1,0.5c0.1-0.3,0.1-0.8,0-1.1C-28.7,57.1-28.7,57.4-28.7,57.9 M324.8,61.8c0,0.7,0,0.9,0.1,0.6
		c0.1-0.3,0.1-0.9,0-1.2C324.8,60.9,324.8,61.1,324.8,61.8 M96.9,65.7c0.3,0.1,0.9,0.1,1.2,0c0.3-0.1,0.1-0.1-0.6-0.1
		S96.6,65.6,96.9,65.7 M377.1,65.7c0.2,0.1,0.6,0.1,0.8,0c0.2-0.1,0-0.1-0.4-0.1C377.1,65.6,376.9,65.6,377.1,65.7 M236.8,67.4
		c0,0.7,0,0.9,0.1,0.6c0.1-0.3,0.1-0.9,0-1.2C236.9,66.4,236.8,66.7,236.8,67.4 M354,75.4c0,0.8,0,1.1,0.1,0.7
		c0.1-0.4,0.1-1.1,0-1.5C354,74.2,354,74.6,354,75.4 M-20.1,78.2c2.2,0,5.9,0,8,0c2.2,0,0.3-0.1-4.1-0.1S-22.3,78.2-20.1,78.2
		 M-5.3,82.3c0,0.5,0,0.7,0.1,0.5c0.1-0.3,0.1-0.7,0-0.9C-5.3,81.5-5.3,81.8-5.3,82.3 M-5.3,88.1c0,0.5,0,0.7,0.1,0.5
		c0.1-0.3,0.1-0.7,0-0.9C-5.3,87.4-5.3,87.6-5.3,88.1 M381.4,88.5l-0.7,0.9L381.4,88.5c0.7-0.6,0.9-0.9,0.7-0.9
		C382.1,87.6,381.8,88,381.4,88.5 M21.8,92.8c0.4,0.1,1,0.1,1.3,0c0.3-0.1,0-0.1-0.7-0.1C21.6,92.7,21.4,92.8,21.8,92.8"/>
	<path id="path4" class="st4" d="M-28.7,27.5c0,0.7,0,0.9,0.1,0.6c0.1-0.3,0.1-0.9,0-1.2C-28.6,26.6-28.7,26.8-28.7,27.5 M93.5,30.6
		c0.3,0.1,0.7,0.1,1,0c0.3-0.1,0-0.1-0.5-0.1C93.4,30.5,93.2,30.5,93.5,30.6 M-28.7,38.9c0,0.7,0,0.9,0.1,0.6c0.1-0.3,0.1-0.9,0-1.2
		C-28.6,38-28.7,38.3-28.7,38.9 M-27.1,42.6c0.3,0.1,0.9,0.1,1.2,0c0.3-0.1,0.1-0.1-0.6-0.1C-27.2,42.5-27.5,42.5-27.1,42.6
		 M188.7,69.2c0,11.8,0,16.6,0.1,10.7c0-5.9,0-15.5,0-21.4S188.7,57.5,188.7,69.2 M-27.4,56.1c0.2,0.1,0.6,0.1,0.8,0
		c0.2-0.1,0-0.1-0.4-0.1C-27.4,56-27.6,56.1-27.4,56.1 M-28.7,60.5c0,1,0,1.3,0.1,0.9c0-0.5,0-1.3,0-1.7
		C-28.6,59.1-28.7,59.5-28.7,60.5 M-28.7,74.2c0,1,0,1.4,0.1,0.9c0-0.6,0-1.4,0-1.9C-28.6,72.7-28.7,73.1-28.7,74.2 M-5.3,83.9
		c0,0.5,0,0.7,0.1,0.5c0.1-0.3,0.1-0.7,0-0.9C-5.3,83.1-5.3,83.4-5.3,83.9 M-5.3,86.5c0,0.5,0,0.7,0.1,0.5c0.1-0.3,0.1-0.7,0-0.9
		C-5.3,85.8-5.3,86-5.3,86.5"/>
</g>
</svg>
