<svg id="svg" version="1.1" xmlns="http://www.w3.org/2000/svg" xmlns:xlink="http://www.w3.org/1999/xlink" width="400" height="119.85929005436522" viewBox="0, 0, 400,119.85929005436522"><g id="svgg"><path id="path0" d="M6.314 49.149 L 5.917 49.471 5.875 74.305 C 5.852 87.964,5.880 99.261,5.937 99.409 C 6.226 100.164,6.206 100.163,19.997 100.163 L 33.019 100.163 33.426 99.756 C 33.872 99.310,33.933 98.495,33.838 94.250 C 33.772 91.275,34.534 91.504,24.663 91.497 C 17.271 91.491,16.663 91.469,16.534 91.204 C 16.310 90.742,16.385 78.048,16.614 77.819 C 16.752 77.681,18.593 77.633,23.228 77.646 L 29.651 77.664 30.117 77.263 L 30.583 76.862 30.610 73.581 C 30.638 70.253,30.534 69.471,30.030 69.222 C 29.876 69.146,26.841 69.077,23.286 69.070 C 18.565 69.060,16.770 69.003,16.626 68.860 C 16.393 68.627,16.312 58.267,16.539 57.792 C 16.668 57.521,17.174 57.500,23.631 57.499 C 27.913 57.498,30.822 57.432,31.205 57.325 C 31.831 57.152,32.617 56.329,32.630 55.833 C 32.634 55.696,32.795 55.058,32.989 54.417 C 33.183 53.775,33.379 53.078,33.426 52.867 C 33.472 52.656,33.632 52.131,33.782 51.700 C 34.075 50.859,34.172 49.284,33.944 49.056 C 33.604 48.714,6.739 48.805,6.314 49.149 M104.000 61.869 C 102.153 62.173,98.899 62.876,98.250 63.110 C 97.883 63.242,97.508 63.370,97.417 63.393 C 96.896 63.527,95.817 64.221,95.449 64.659 C 94.932 65.273,94.940 65.338,95.927 68.323 C 96.334 69.555,96.667 70.631,96.667 70.714 C 96.667 71.920,98.037 72.088,100.333 71.162 C 101.646 70.633,103.626 70.065,104.833 69.871 C 109.970 69.044,111.862 70.366,111.979 74.862 C 112.035 76.997,112.081 76.952,109.917 76.903 C 106.323 76.823,102.002 77.622,99.167 78.893 C 95.995 80.315,93.352 83.714,92.862 87.000 C 91.450 96.464,97.348 102.582,106.602 101.253 C 108.539 100.975,111.122 99.633,112.908 97.977 C 113.532 97.398,113.537 97.402,114.106 99.015 C 114.930 101.350,115.515 101.676,117.487 100.904 C 124.113 98.310,123.940 98.476,122.806 95.799 C 121.644 93.058,121.521 91.638,121.491 80.600 C 121.474 73.994,121.409 71.249,121.248 70.333 C 120.497 66.047,117.908 63.198,113.915 62.263 C 113.274 62.113,112.517 61.928,112.233 61.852 C 111.539 61.666,105.152 61.679,104.000 61.869 M135.083 62.227 C 134.167 62.525,132.717 62.990,131.863 63.259 C 129.456 64.019,129.321 64.291,130.088 66.846 C 130.320 67.618,130.553 68.625,130.604 69.083 C 130.656 69.542,130.748 69.992,130.808 70.083 C 130.868 70.175,130.954 76.875,131.000 84.972 C 131.080 99.179,131.094 99.702,131.399 99.925 C 131.968 100.340,140.247 100.253,140.673 99.827 C 140.992 99.508,141.000 99.195,141.000 86.242 L 141.000 72.984 141.458 72.557 C 142.161 71.902,143.279 71.167,143.395 71.284 C 143.453 71.342,143.500 71.306,143.500 71.206 C 143.500 71.056,143.880 70.848,144.333 70.748 C 144.379 70.738,144.698 70.607,145.042 70.456 C 146.868 69.659,148.493 69.972,149.252 71.268 C 150.096 72.708,150.135 73.390,150.155 87.000 C 150.174 99.459,150.178 99.586,150.515 99.869 C 150.977 100.257,159.245 100.306,159.768 99.924 C 160.072 99.702,160.086 99.196,160.167 86.231 L 160.250 72.769 161.167 72.065 C 164.230 69.713,167.334 69.397,168.343 71.333 C 169.041 72.673,169.060 73.038,169.123 86.580 C 169.177 98.109,169.213 99.609,169.446 99.866 C 169.779 100.234,178.239 100.313,178.725 99.953 C 178.981 99.763,179.165 71.748,178.922 69.934 C 178.461 66.493,176.751 63.549,174.611 62.513 C 171.298 60.910,165.776 61.546,162.201 63.943 C 161.608 64.341,161.064 64.667,160.992 64.667 C 160.920 64.667,160.836 64.724,160.806 64.795 C 160.720 64.992,159.005 66.396,158.945 66.319 C 158.916 66.281,158.697 65.907,158.457 65.489 C 157.032 62.998,154.474 61.712,150.917 61.697 C 147.422 61.682,145.106 62.518,141.808 64.980 L 140.033 66.306 139.837 65.528 C 139.729 65.100,139.641 64.733,139.641 64.713 C 139.642 64.478,138.957 62.923,138.610 62.375 C 138.040 61.474,137.474 61.450,135.083 62.227 M61.196 75.613 C 61.003 75.692,58.969 78.716,55.332 84.333 C 54.709 85.296,53.969 86.421,53.687 86.833 C 53.406 87.246,52.660 88.371,52.031 89.333 C 51.402 90.296,49.951 92.508,48.807 94.250 C 47.663 95.992,46.302 98.092,45.782 98.917 L 44.837 100.417 50.453 100.461 C 55.632 100.501,56.092 100.482,56.360 100.211 C 56.520 100.049,57.507 98.492,58.554 96.750 C 59.600 95.008,61.391 92.046,62.532 90.167 C 63.673 88.287,65.085 85.962,65.669 85.000 C 66.253 84.037,66.792 83.225,66.866 83.194 C 66.940 83.164,67.000 83.033,67.000 82.903 C 67.000 82.380,67.525 82.721,68.160 83.658 C 68.531 84.202,68.833 84.721,68.833 84.810 C 68.833 84.899,68.901 84.997,68.983 85.028 C 69.066 85.058,69.974 86.433,71.002 88.083 C 72.029 89.733,73.199 91.589,73.602 92.206 C 74.004 92.824,74.333 93.399,74.333 93.484 C 74.333 93.569,74.392 93.664,74.465 93.694 C 74.537 93.725,75.357 94.987,76.287 96.500 C 78.941 100.817,78.497 100.621,85.380 100.501 L 90.177 100.417 89.047 98.611 C 88.425 97.618,87.298 95.856,86.542 94.695 C 85.787 93.533,85.168 92.496,85.167 92.389 C 85.167 92.282,85.098 92.169,85.015 92.139 C 84.931 92.108,84.231 91.071,83.459 89.833 C 82.687 88.596,81.531 86.758,80.890 85.750 C 80.250 84.742,78.879 82.567,77.843 80.917 C 76.807 79.267,75.613 77.392,75.188 76.750 L 74.417 75.583 67.917 75.554 C 64.342 75.538,61.318 75.564,61.196 75.613 M111.782 83.625 C 112.035 83.794,112.114 90.552,111.869 91.167 C 111.248 92.731,107.834 94.269,105.961 93.828 C 103.509 93.252,102.324 91.807,102.275 89.333 C 102.221 86.619,103.459 84.973,106.162 84.168 C 107.946 83.637,111.312 83.311,111.782 83.625 " stroke="none" fill="#4c4c4c" fill-rule="evenodd"></path><path id="path1" d="M143.167 18.188 C 139.571 18.384,136.259 18.674,134.833 18.918 C 134.696 18.942,134.171 19.022,133.667 19.095 C 133.162 19.169,132.712 19.239,132.667 19.250 C 132.621 19.261,132.246 19.327,131.833 19.396 C 125.543 20.457,118.447 22.646,111.917 25.541 C 111.092 25.907,110.342 26.221,110.250 26.238 C 110.052 26.277,105.451 28.603,104.237 29.279 C 103.771 29.538,103.134 29.891,102.820 30.063 C 101.524 30.774,97.470 33.320,95.917 34.398 C 94.296 35.523,91.835 37.317,91.667 37.496 C 91.621 37.544,90.796 38.219,89.833 38.995 C 81.222 45.935,74.247 53.954,68.832 63.140 C 67.701 65.059,67.227 65.087,65.417 63.341 C 62.937 60.950,58.996 58.248,55.583 56.598 C 52.671 55.190,52.546 55.137,50.250 54.332 C 49.150 53.946,48.063 53.552,47.833 53.456 C 47.604 53.361,47.304 53.267,47.167 53.248 C 47.029 53.229,46.242 53.048,45.417 52.844 C 44.592 52.641,43.729 52.438,43.500 52.394 C 43.271 52.350,42.783 52.240,42.417 52.150 C 40.269 51.622,38.532 51.885,40.295 52.471 C 41.504 52.872,46.696 56.038,49.041 57.804 C 54.559 61.957,58.834 67.280,60.751 72.384 C 61.240 73.684,61.145 73.667,67.753 73.667 C 74.466 73.667,74.434 73.676,74.919 71.500 C 75.000 71.137,75.443 69.929,75.630 69.564 C 75.718 69.391,76.081 68.616,76.437 67.841 C 77.340 65.874,78.823 63.110,79.056 62.962 C 79.163 62.894,79.188 62.837,79.111 62.836 C 78.927 62.832,80.064 60.960,82.091 57.931 C 82.453 57.390,82.890 56.715,83.061 56.431 C 85.567 52.283,93.320 43.851,98.196 39.970 C 98.776 39.509,99.475 38.945,99.750 38.716 C 105.417 34.008,114.615 28.485,121.768 25.497 C 123.987 24.569,127.897 23.142,128.833 22.918 C 128.971 22.885,129.533 22.712,130.083 22.535 C 132.969 21.603,135.326 20.949,138.667 20.155 C 141.660 19.443,147.007 18.512,148.283 18.480 C 148.723 18.469,149.308 18.403,149.583 18.333 L 150.083 18.206 149.500 18.182 C 147.427 18.095,144.815 18.098,143.167 18.188 M193.732 48.990 C 193.538 49.072,193.331 49.266,193.271 49.422 C 192.976 50.191,193.162 99.402,193.461 99.701 C 193.758 99.999,210.123 100.188,212.173 99.917 C 221.599 98.673,225.681 94.332,225.631 85.604 C 225.595 79.273,223.304 75.732,217.754 73.428 L 217.092 73.153 218.282 72.447 C 222.308 70.060,223.919 67.048,223.915 61.917 C 223.908 54.396,220.408 50.580,212.123 49.061 C 211.220 48.895,194.111 48.829,193.732 48.990 M270.735 49.183 C 270.258 49.711,270.150 99.076,270.625 99.647 C 271.089 100.205,280.090 100.215,280.541 99.658 C 280.812 99.323,280.833 98.607,280.833 89.752 C 280.833 82.308,280.879 80.169,281.042 80.034 C 281.163 79.934,282.410 79.842,284.000 79.817 C 285.513 79.793,287.087 79.710,287.500 79.633 C 287.912 79.556,288.438 79.458,288.667 79.417 C 289.522 79.263,291.806 78.521,292.474 78.180 C 292.855 77.985,293.168 77.884,293.169 77.955 C 293.171 78.026,293.227 78.000,293.294 77.898 C 293.362 77.796,293.679 77.582,294.000 77.422 C 301.211 73.818,304.021 61.419,299.283 54.109 C 297.687 51.647,294.196 49.771,289.919 49.077 C 287.330 48.658,271.130 48.747,270.735 49.183 M208.879 57.430 C 212.372 58.153,214.069 61.031,213.273 64.881 C 212.913 66.625,211.503 68.894,210.981 68.571 C 210.900 68.521,210.833 68.546,210.833 68.626 C 210.833 69.346,204.503 70.240,203.719 69.630 C 203.451 69.422,203.436 57.694,203.704 57.372 C 203.948 57.078,207.361 57.116,208.879 57.430 M287.667 57.572 C 288.457 57.863,289.497 58.503,289.499 58.700 C 289.499 58.764,289.675 59.005,289.888 59.235 C 290.231 59.605,290.493 60.239,290.783 61.402 C 291.142 62.840,290.997 65.353,290.431 67.522 C 289.727 70.217,287.143 71.508,282.583 71.441 L 280.917 71.417 280.870 64.667 C 280.845 60.954,280.867 57.738,280.920 57.520 L 281.017 57.124 283.967 57.210 C 286.122 57.273,287.119 57.370,287.667 57.572 M314.583 61.848 C 314.217 61.912,313.547 62.014,313.095 62.075 C 312.643 62.135,312.230 62.210,312.178 62.242 C 312.126 62.274,311.821 62.344,311.500 62.397 C 308.262 62.934,305.341 64.351,305.332 65.388 C 305.328 65.820,307.085 70.949,307.390 71.394 C 307.686 71.827,307.781 71.862,308.400 71.769 C 309.426 71.616,309.555 71.583,309.917 71.385 C 311.511 70.512,315.057 69.749,317.500 69.753 C 321.135 69.758,322.104 70.740,322.287 74.606 C 322.405 77.117,322.547 77.002,319.354 76.984 C 318.067 76.977,316.955 77.006,316.882 77.049 C 316.809 77.092,316.300 77.174,315.750 77.231 C 309.114 77.923,304.706 81.283,303.045 86.917 C 302.815 87.696,302.855 91.434,303.104 92.500 C 304.094 96.728,307.090 100.112,310.583 100.947 C 315.428 102.104,319.749 101.095,323.026 98.041 L 323.801 97.318 324.154 98.367 C 325.026 100.954,325.746 101.641,327.053 101.137 C 329.609 100.150,332.500 98.950,333.125 98.615 C 333.815 98.245,333.853 97.522,333.244 96.322 C 333.012 95.863,332.866 95.415,332.921 95.327 C 332.975 95.239,332.948 95.167,332.861 95.167 C 332.720 95.167,332.228 93.465,332.044 92.338 C 331.924 91.607,331.833 87.180,331.769 79.000 C 331.717 72.351,331.663 70.896,331.430 69.917 C 331.278 69.275,331.140 68.619,331.124 68.458 C 331.109 68.298,331.037 68.167,330.965 68.167 C 330.892 68.167,330.833 68.072,330.833 67.956 C 330.833 67.840,330.683 67.465,330.500 67.123 C 330.316 66.780,330.197 66.500,330.235 66.500 C 330.557 66.500,328.168 64.110,327.295 63.559 C 326.585 63.111,324.401 62.251,323.550 62.085 C 321.420 61.669,316.366 61.536,314.583 61.848 M350.750 61.772 C 342.454 62.921,337.453 70.822,340.373 78.167 C 341.726 81.572,343.735 82.988,351.167 85.774 C 352.786 86.381,354.667 87.308,354.667 87.499 C 354.667 87.591,354.778 87.667,354.914 87.667 C 355.457 87.667,356.084 88.986,356.071 90.101 C 356.026 94.073,350.806 94.487,343.583 91.092 C 340.871 89.817,340.819 89.836,339.879 92.461 C 339.592 93.262,339.166 94.367,338.933 94.917 C 338.315 96.371,338.357 96.851,339.162 97.541 C 340.143 98.380,342.612 99.548,344.583 100.104 C 352.072 102.219,357.292 101.757,361.283 98.628 C 364.505 96.102,366.383 90.808,365.445 86.896 C 364.271 81.996,361.407 79.523,353.792 76.829 C 349.812 75.421,348.833 74.642,348.833 72.884 C 348.833 70.286,352.171 68.943,356.271 69.891 C 356.465 69.936,356.900 70.017,357.238 70.070 C 357.575 70.124,358.616 70.441,359.550 70.775 C 362.018 71.657,362.266 71.636,362.836 70.500 C 363.570 69.038,364.833 65.829,364.833 65.429 C 364.833 63.440,355.744 61.080,350.750 61.772 M382.167 61.778 C 379.851 62.142,377.564 63.041,376.010 64.197 C 373.316 66.202,371.822 68.731,371.252 72.250 C 370.405 77.481,373.287 82.233,378.486 84.178 C 378.996 84.369,379.507 84.604,379.623 84.700 C 379.739 84.796,379.833 84.836,379.833 84.788 C 379.833 84.670,384.593 86.513,385.417 86.950 C 386.842 87.706,387.617 88.832,387.576 90.083 C 387.445 94.063,382.712 94.478,375.237 91.167 C 372.179 89.812,372.503 89.663,371.182 93.028 C 369.551 97.182,369.532 97.105,372.583 98.727 C 373.677 99.307,376.658 100.357,377.888 100.594 C 378.056 100.626,378.319 100.691,378.472 100.737 C 380.287 101.287,384.566 101.553,386.744 101.251 C 393.458 100.320,398.424 93.456,396.967 87.121 C 396.878 86.734,396.782 86.303,396.753 86.163 C 395.894 82.013,392.515 79.383,384.333 76.494 C 382.342 75.791,380.420 74.550,380.528 74.037 C 380.542 73.971,380.464 73.697,380.353 73.429 C 380.011 72.597,380.436 71.364,381.323 70.618 C 382.958 69.242,387.787 69.426,391.791 71.016 C 393.885 71.848,393.842 71.883,395.391 68.050 C 396.684 64.853,396.659 64.767,394.129 63.554 C 393.508 63.257,393.000 63.044,393.000 63.082 C 393.000 63.121,392.681 63.037,392.292 62.896 C 391.902 62.755,391.396 62.605,391.167 62.562 C 390.938 62.519,390.450 62.405,390.084 62.308 C 389.089 62.045,388.881 62.010,387.250 61.834 C 385.789 61.677,383.005 61.646,382.167 61.778 M238.332 62.218 C 238.287 62.260,237.688 62.344,237.000 62.403 C 235.353 62.546,234.429 62.634,233.417 62.744 C 232.958 62.794,232.208 62.875,231.750 62.924 C 229.347 63.182,229.320 63.279,230.589 67.026 C 231.097 68.524,231.544 69.862,231.584 70.000 C 231.623 70.137,232.175 71.769,232.810 73.625 C 233.446 75.481,233.926 77.000,233.879 77.000 C 233.831 77.000,233.867 77.094,233.957 77.208 C 234.048 77.323,234.290 77.942,234.494 78.583 C 234.698 79.225,235.087 80.365,235.358 81.117 C 235.628 81.870,235.879 82.620,235.915 82.784 C 235.951 82.949,236.136 83.496,236.326 84.000 C 236.516 84.504,236.707 85.067,236.750 85.250 C 236.819 85.549,237.928 88.816,239.353 92.917 C 239.639 93.742,239.934 94.642,240.007 94.917 C 240.289 95.974,241.488 99.206,241.741 99.594 C 242.028 100.031,242.060 100.036,244.292 100.001 C 245.914 99.975,245.855 99.787,245.016 102.307 C 243.543 106.726,241.888 107.909,238.099 107.248 C 236.709 107.006,236.247 106.849,234.363 105.984 C 232.844 105.286,232.579 105.401,231.833 107.083 C 231.630 107.542,231.060 108.757,230.565 109.783 C 229.530 111.934,229.487 112.263,230.156 112.963 C 230.846 113.685,234.019 115.019,235.629 115.264 C 235.971 115.316,236.588 115.434,237.000 115.526 C 238.355 115.828,242.132 115.725,243.659 115.345 C 247.485 114.393,249.702 112.246,251.673 107.583 C 251.990 106.832,253.666 101.408,253.784 100.750 C 253.817 100.567,254.005 99.892,254.201 99.250 C 254.397 98.608,254.583 97.942,254.615 97.770 C 254.646 97.598,254.862 96.810,255.096 96.020 C 255.330 95.230,255.553 94.433,255.592 94.250 C 255.630 94.067,255.817 93.392,256.007 92.750 C 256.196 92.108,256.382 91.444,256.420 91.273 C 256.457 91.103,257.211 88.365,258.095 85.190 C 258.979 82.015,259.720 79.342,259.742 79.250 C 259.889 78.628,260.127 77.736,260.829 75.167 C 261.627 72.247,261.883 71.250,261.835 71.250 C 261.821 71.250,261.897 71.025,262.004 70.750 C 262.110 70.475,262.230 70.063,262.270 69.833 C 262.310 69.604,262.390 69.304,262.447 69.167 C 262.503 69.029,262.578 68.773,262.612 68.597 C 262.645 68.422,262.891 67.522,263.158 66.597 C 264.119 63.272,264.127 63.292,261.570 62.908 C 254.785 61.889,254.194 61.990,253.746 64.250 C 253.558 65.193,253.555 65.209,253.337 66.194 C 253.229 66.683,253.106 67.271,253.064 67.500 C 253.021 67.729,252.873 68.404,252.735 69.000 C 252.459 70.188,252.336 70.742,252.237 71.250 C 252.201 71.433,252.090 71.976,251.991 72.456 C 251.892 72.936,251.811 73.366,251.811 73.411 C 251.812 73.457,251.740 73.739,251.653 74.039 C 251.566 74.338,251.454 74.808,251.405 75.083 C 251.355 75.358,251.238 75.921,251.143 76.333 C 251.049 76.746,250.937 77.271,250.896 77.500 C 250.854 77.729,250.781 78.047,250.733 78.207 C 250.685 78.367,250.608 78.704,250.563 78.957 C 250.518 79.210,250.331 80.092,250.147 80.917 C 249.963 81.742,249.778 82.604,249.735 82.833 C 249.692 83.063,249.619 83.356,249.573 83.486 C 249.527 83.615,249.448 83.990,249.397 84.319 C 249.347 84.648,249.170 85.517,249.004 86.250 C 248.839 86.983,248.491 88.723,248.231 90.115 C 247.786 92.497,247.659 92.891,247.560 92.204 C 247.440 91.370,245.754 84.411,244.724 80.500 C 244.399 79.262,244.107 78.137,244.076 78.000 C 243.997 77.652,243.657 76.398,242.696 72.917 C 241.721 69.386,240.854 66.185,240.752 65.736 C 240.155 63.105,239.787 62.405,238.916 62.238 C 238.640 62.185,238.377 62.176,238.332 62.218 M208.167 78.242 C 212.844 78.459,214.922 80.304,215.094 84.392 C 215.261 88.362,213.448 90.938,210.163 91.401 C 209.752 91.459,208.929 91.578,208.333 91.666 C 206.727 91.904,203.912 91.879,203.702 91.625 C 203.590 91.490,203.522 89.110,203.508 84.887 C 203.483 77.369,203.324 77.990,205.243 78.096 C 205.889 78.131,207.204 78.197,208.167 78.242 M322.118 84.000 C 322.572 84.899,322.406 91.054,321.912 91.642 C 320.166 93.717,316.673 94.483,314.572 93.252 C 311.636 91.531,311.772 86.661,314.807 84.876 C 316.997 83.588,321.629 83.033,322.118 84.000 " stroke="none" fill="#048c44" fill-rule="evenodd"></path><path id="path2" d="M146.458 18.122 C 146.848 18.157,147.485 18.157,147.875 18.122 C 148.265 18.087,147.946 18.058,147.167 18.058 C 146.387 18.058,146.069 18.087,146.458 18.122 M83.991 43.958 L 83.417 44.583 84.042 44.009 C 84.385 43.693,84.667 43.412,84.667 43.384 C 84.667 43.257,84.526 43.377,83.991 43.958 M92.497 45.125 L 90.917 46.750 92.542 45.170 C 93.435 44.301,94.167 43.570,94.167 43.545 C 94.167 43.424,93.964 43.616,92.497 45.125 M81.242 46.708 L 80.583 47.417 81.292 46.758 C 81.950 46.145,82.077 46.000,81.950 46.000 C 81.923 46.000,81.605 46.319,81.242 46.708 M193.081 74.500 C 193.081 88.021,193.101 93.552,193.125 86.792 C 193.149 80.031,193.149 68.969,193.125 62.208 C 193.101 55.448,193.081 60.979,193.081 74.500 M203.574 63.500 C 203.574 66.387,203.597 67.569,203.625 66.125 C 203.652 64.681,203.652 62.319,203.625 60.875 C 203.597 59.431,203.574 60.612,203.574 63.500 M283.794 71.451 C 284.001 71.491,284.301 71.490,284.460 71.448 C 284.620 71.406,284.450 71.374,284.083 71.375 C 283.717 71.377,283.586 71.411,283.794 71.451 M319.542 76.956 C 319.977 76.990,320.690 76.990,321.125 76.956 C 321.560 76.922,321.204 76.893,320.333 76.893 C 319.462 76.893,319.106 76.922,319.542 76.956 M203.576 84.583 C 203.576 88.067,203.598 89.515,203.625 87.803 C 203.652 86.090,203.652 83.240,203.625 81.469 C 203.598 79.699,203.576 81.100,203.576 84.583 M374.000 81.417 C 374.311 81.737,374.603 82.000,374.649 82.000 C 374.695 82.000,374.478 81.737,374.167 81.417 C 373.856 81.096,373.564 80.833,373.518 80.833 C 373.472 80.833,373.689 81.096,374.000 81.417 M280.911 90.167 C 280.911 94.796,280.932 96.690,280.958 94.375 C 280.984 92.060,280.984 88.273,280.958 85.958 C 280.932 83.644,280.911 85.537,280.911 90.167 M204.798 91.790 C 205.375 91.823,206.275 91.823,206.798 91.790 C 207.322 91.757,206.850 91.730,205.750 91.730 C 204.650 91.731,204.222 91.758,204.798 91.790 M351.627 93.451 C 351.834 93.491,352.134 93.490,352.294 93.448 C 352.453 93.406,352.283 93.374,351.917 93.375 C 351.550 93.377,351.420 93.411,351.627 93.451 M383.127 93.451 C 383.334 93.491,383.634 93.490,383.794 93.448 C 383.953 93.406,383.783 93.374,383.417 93.375 C 383.050 93.377,382.920 93.411,383.127 93.451 M198.137 100.125 C 200.366 100.151,203.966 100.151,206.137 100.125 C 208.307 100.099,206.483 100.077,202.083 100.077 C 197.683 100.077,195.907 100.099,198.137 100.125 M243.625 100.122 C 244.015 100.157,244.652 100.157,245.042 100.122 C 245.431 100.087,245.112 100.058,244.333 100.058 C 243.554 100.058,243.235 100.087,243.625 100.122 M273.375 100.125 C 274.544 100.153,276.456 100.153,277.625 100.125 C 278.794 100.096,277.837 100.072,275.500 100.072 C 273.162 100.072,272.206 100.096,273.375 100.125 M239.463 115.789 C 239.855 115.824,240.455 115.824,240.796 115.788 C 241.137 115.752,240.817 115.723,240.083 115.724 C 239.350 115.724,239.071 115.754,239.463 115.789 " stroke="none" fill="#289a5f" fill-rule="evenodd"></path><path id="path3" d="M143.877 18.120 C 144.131 18.158,144.506 18.157,144.711 18.117 C 144.916 18.078,144.708 18.046,144.250 18.048 C 143.792 18.049,143.624 18.081,143.877 18.120 M205.047 57.289 C 205.485 57.324,206.160 57.323,206.547 57.288 C 206.934 57.254,206.575 57.225,205.750 57.226 C 204.925 57.226,204.609 57.255,205.047 57.289 M282.125 57.290 C 282.698 57.323,283.635 57.323,284.208 57.290 C 284.781 57.258,284.313 57.231,283.167 57.231 C 282.021 57.231,281.552 57.258,282.125 57.290 M280.910 64.333 C 280.910 68.137,280.931 69.694,280.958 67.792 C 280.985 65.890,280.985 62.777,280.958 60.875 C 280.931 58.973,280.910 60.529,280.910 64.333 M109.042 61.615 C 109.202 61.657,109.465 61.657,109.625 61.615 C 109.785 61.573,109.654 61.539,109.333 61.539 C 109.013 61.539,108.881 61.573,109.042 61.615 M150.375 61.619 C 150.627 61.658,151.040 61.658,151.292 61.619 C 151.544 61.581,151.337 61.550,150.833 61.550 C 150.329 61.550,150.123 61.581,150.375 61.619 M169.458 61.621 C 169.756 61.658,170.244 61.658,170.542 61.621 C 170.840 61.584,170.596 61.553,170.000 61.553 C 169.404 61.553,169.160 61.584,169.458 61.621 M317.708 61.623 C 318.144 61.657,318.856 61.657,319.292 61.623 C 319.727 61.588,319.371 61.560,318.500 61.560 C 317.629 61.560,317.273 61.588,317.708 61.623 M328.833 64.750 C 329.144 65.071,329.436 65.333,329.482 65.333 C 329.528 65.333,329.311 65.071,329.000 64.750 C 328.689 64.429,328.397 64.167,328.351 64.167 C 328.305 64.167,328.522 64.429,328.833 64.750 M16.372 68.000 C 16.372 68.321,16.406 68.452,16.448 68.292 C 16.490 68.131,16.490 67.869,16.448 67.708 C 16.406 67.548,16.372 67.679,16.372 68.000 M281.544 71.453 C 281.797 71.491,282.172 71.490,282.377 71.451 C 282.582 71.411,282.375 71.380,281.917 71.381 C 281.458 71.382,281.291 71.415,281.544 71.453 M130.875 73.417 C 130.877 73.783,130.911 73.914,130.951 73.706 C 130.991 73.499,130.990 73.199,130.948 73.040 C 130.906 72.880,130.874 73.050,130.875 73.417 M322.214 74.417 C 322.216 74.875,322.248 75.043,322.286 74.789 C 322.325 74.536,322.324 74.161,322.284 73.956 C 322.244 73.751,322.213 73.958,322.214 74.417 M111.875 74.750 C 111.877 75.117,111.911 75.247,111.951 75.040 C 111.991 74.832,111.990 74.532,111.948 74.373 C 111.906 74.214,111.874 74.383,111.875 74.750 M169.079 87.333 C 169.079 93.796,169.100 96.440,169.125 93.208 C 169.150 89.977,169.150 84.690,169.125 81.458 C 169.100 78.227,169.079 80.871,169.079 87.333 M150.079 88.000 C 150.079 94.279,150.100 96.848,150.125 93.708 C 150.150 90.569,150.150 85.431,150.125 82.292 C 150.100 79.152,150.079 81.721,150.079 88.000 M16.375 78.750 C 16.377 79.117,16.411 79.247,16.451 79.040 C 16.491 78.832,16.490 78.532,16.448 78.373 C 16.406 78.214,16.374 78.383,16.375 78.750 M280.879 81.167 C 280.879 81.579,280.911 81.748,280.951 81.542 C 280.991 81.335,280.991 80.998,280.951 80.792 C 280.911 80.585,280.879 80.754,280.879 81.167 M110.375 83.619 C 110.627 83.658,111.040 83.658,111.292 83.619 C 111.544 83.581,111.337 83.550,110.833 83.550 C 110.329 83.550,110.123 83.581,110.375 83.619 M320.042 83.615 C 320.202 83.657,320.465 83.657,320.625 83.615 C 320.785 83.573,320.654 83.539,320.333 83.539 C 320.012 83.539,319.881 83.573,320.042 83.615 M215.045 84.667 C 215.045 85.079,215.078 85.248,215.118 85.042 C 215.157 84.835,215.157 84.498,215.118 84.292 C 215.078 84.085,215.045 84.254,215.045 84.667 M302.717 89.667 C 302.717 90.171,302.748 90.377,302.786 90.125 C 302.824 89.873,302.824 89.460,302.786 89.208 C 302.748 88.956,302.717 89.162,302.717 89.667 M22.802 91.458 C 24.481 91.485,27.181 91.485,28.802 91.458 C 30.424 91.431,29.050 91.409,25.750 91.409 C 22.450 91.409,21.124 91.431,22.802 91.458 M33.872 94.000 C 33.872 94.321,33.906 94.452,33.948 94.292 C 33.990 94.131,33.990 93.869,33.948 93.708 C 33.906 93.548,33.872 93.679,33.872 94.000 M33.872 97.667 C 33.872 97.987,33.906 98.119,33.948 97.958 C 33.990 97.798,33.990 97.535,33.948 97.375 C 33.906 97.215,33.872 97.346,33.872 97.667 M323.240 97.875 L 322.750 98.417 323.292 97.927 C 323.797 97.471,323.910 97.333,323.781 97.333 C 323.752 97.333,323.509 97.577,323.240 97.875 M54.128 100.621 C 54.428 100.658,54.878 100.657,55.128 100.619 C 55.378 100.581,55.133 100.551,54.583 100.552 C 54.033 100.553,53.828 100.584,54.128 100.621 " stroke="none" fill="#52ae7e" fill-rule="evenodd"></path><path id="path4" d="M16.379 59.667 C 16.379 60.079,16.411 60.248,16.451 60.042 C 16.491 59.835,16.491 59.498,16.451 59.292 C 16.411 59.085,16.379 59.254,16.379 59.667 M107.792 61.618 C 107.998 61.657,108.335 61.657,108.542 61.618 C 108.748 61.578,108.579 61.545,108.167 61.545 C 107.754 61.545,107.585 61.578,107.792 61.618 M16.379 66.833 C 16.379 67.246,16.411 67.415,16.451 67.208 C 16.491 67.002,16.491 66.665,16.451 66.458 C 16.411 66.252,16.379 66.421,16.379 66.833 M17.542 69.119 C 17.794 69.158,18.206 69.158,18.458 69.119 C 18.710 69.081,18.504 69.050,18.000 69.050 C 17.496 69.050,17.290 69.081,17.542 69.119 M179.079 85.833 C 179.079 93.212,179.100 96.231,179.125 92.542 C 179.150 88.852,179.150 82.815,179.125 79.125 C 179.100 75.435,179.079 78.454,179.079 85.833 M17.375 77.615 C 17.535 77.657,17.798 77.657,17.958 77.615 C 18.119 77.573,17.987 77.539,17.667 77.539 C 17.346 77.539,17.215 77.573,17.375 77.615 M16.387 80.333 C 16.387 80.929,16.417 81.173,16.454 80.875 C 16.491 80.577,16.491 80.090,16.454 79.792 C 16.417 79.494,16.387 79.737,16.387 80.333 M16.388 88.917 C 16.389 89.558,16.419 89.800,16.455 89.455 C 16.491 89.109,16.490 88.584,16.454 88.288 C 16.417 87.992,16.387 88.275,16.388 88.917 M33.872 95.000 C 33.872 95.321,33.906 95.452,33.948 95.292 C 33.990 95.131,33.990 94.869,33.948 94.708 C 33.906 94.548,33.872 94.679,33.872 95.000 M33.872 96.667 C 33.872 96.987,33.906 97.119,33.948 96.958 C 33.990 96.798,33.990 96.535,33.948 96.375 C 33.906 96.215,33.872 96.346,33.872 96.667 " stroke="none" fill="#206c6c" fill-rule="evenodd"></path></g></svg>